<?xml version="1.0" standalone="no"?>
<!DOCTYPE svg PUBLIC "-//W3C//DTD SVG 20010904//EN"
 "http://www.w3.org/TR/2001/REC-SVG-20010904/DTD/svg10.dtd">
<svg version="1.0" xmlns="http://www.w3.org/2000/svg"
 width="1250.000000pt" height="1250.000000pt" viewBox="0 0 1250.000000 1250.000000"
 preserveAspectRatio="xMidYMid meet">

<g transform="translate(0.000000,1250.000000) scale(0.100000,-0.100000)"
fill="#000000" stroke="none">
<path d="M0 6250 l0 -6250 6250 0 6250 0 0 6250 0 6250 -6250 0 -6250 0 0
-6250z m2220 3855 l0 -555 195 0 195 0 0 555 0 555 330 0 330 0 0 -1520 0
-1520 -330 0 -330 0 0 625 0 625 -195 0 -195 0 0 -625 0 -625 -330 0 -330 0 0
1520 0 1520 330 0 330 0 0 -555z m2590 547 c0 -5 137 -689 304 -1520 l304
-1512 -351 2 -352 3 -32 255 c-18 140 -32 258 -33 263 0 4 -114 7 -254 7
l-254 0 -6 -27 c-3 -16 -17 -125 -31 -243 -14 -118 -28 -225 -31 -237 l-4 -23
-346 0 c-324 0 -345 1 -340 18 3 9 70 348 150 752 80 404 213 1080 297 1503
l151 767 414 0 c228 0 414 -4 414 -8z m1775 -2 c224 -32 388 -154 501 -372 82
-159 123 -397 110 -642 -20 -394 -152 -650 -400 -771 -143 -71 -276 -95 -513
-95 l-133 0 0 -575 0 -575 -330 0 -330 0 0 1513 c0 833 3 1517 7 1520 10 11
1011 8 1088 -3z m1880 0 c243 -35 423 -181 529 -429 107 -252 112 -709 10
-979 -65 -174 -177 -303 -327 -377 -147 -72 -271 -94 -519 -95 l-128 0 0 -575
0 -575 -330 0 -330 0 0 1513 c0 833 3 1517 7 1520 10 11 1011 8 1088 -3z
m1449 -517 c67 -287 124 -517 127 -510 3 7 59 243 125 525 l118 512 358 0
c212 0 358 -4 358 -9 0 -9 -108 -324 -489 -1423 l-141 -408 0 -600 0 -600
-330 0 -330 0 0 599 c0 412 -3 608 -11 628 -10 27 -109 315 -454 1328 -84 248
-156 458 -160 468 -7 16 12 17 351 15 l358 -3 120 -522z m-7225 -2803 c308
-63 494 -268 571 -627 17 -76 23 -148 27 -315 l6 -218 -325 0 -325 0 -6 193
c-7 215 -18 295 -50 352 -33 58 -68 79 -130 79 -70 0 -107 -22 -140 -83 -62
-114 -77 -298 -77 -981 0 -657 15 -857 73 -969 29 -57 61 -80 123 -87 63 -8
115 14 144 60 44 73 67 245 71 534 l3 162 329 0 330 0 -6 -237 c-7 -313 -28
-439 -103 -617 -45 -107 -104 -195 -178 -263 -78 -74 -160 -117 -283 -151 -92
-25 -111 -26 -308 -26 -242 1 -307 13 -454 85 -248 122 -377 405 -423 929 -17
199 -17 963 0 1135 69 682 252 965 678 1049 107 22 340 20 453 -4z m3656 -14
c124 -37 221 -95 303 -180 173 -180 257 -427 304 -901 17 -171 17 -835 0
-1010 -57 -582 -193 -878 -463 -1008 -143 -69 -217 -82 -449 -81 -167 0 -206
4 -275 22 -382 104 -551 396 -615 1062 -29 308 -22 858 16 1165 71 577 268
862 654 946 70 15 117 18 260 15 154 -3 186 -7 265 -30z m-2125 -1251 l0
-1225 410 0 410 0 0 -335 0 -335 -747 2 -748 3 -3 1558 -2 1557 340 0 340 0 0
-1225z m3632 13 c3 -1128 4 -1217 21 -1265 43 -127 147 -176 257 -120 52 26
85 77 100 156 6 32 10 506 10 1247 l1 1194 340 0 340 0 -4 -1167 c-3 -1032 -6
-1179 -20 -1263 -64 -362 -208 -585 -435 -670 -122 -47 -185 -55 -417 -55
-192 1 -231 3 -306 22 -255 65 -392 199 -483 473 -79 241 -85 356 -86 1633 l0
1027 340 0 339 0 3 -1212z m2563 1189 c113 -34 185 -77 270 -162 86 -86 129
-152 177 -267 72 -177 102 -353 119 -703 13 -261 7 -804 -11 -1014 -28 -331
-118 -586 -265 -748 -99 -111 -241 -175 -430 -193 -60 -5 -327 -10 -592 -10
l-483 0 0 1560 0 1561 578 -3 c515 -3 583 -6 637 -21z m-8251 -3533 c136 -39
227 -140 271 -300 9 -33 19 -118 22 -196 l6 -138 -182 0 -181 0 0 78 c0 102
-16 207 -36 237 -19 29 -61 40 -98 25 -66 -25 -85 -157 -86 -575 0 -379 20
-538 71 -565 21 -12 79 -13 96 -2 29 19 46 90 56 245 l11 157 179 0 180 0 -6
-152 c-7 -171 -22 -249 -68 -341 -77 -155 -202 -222 -409 -221 -316 2 -442
143 -481 538 -16 167 -7 672 15 786 32 168 93 296 168 353 115 88 312 118 472
71z m1072 -5 c145 -45 237 -162 284 -363 30 -127 40 -257 40 -501 0 -435 -47
-643 -175 -771 -102 -102 -306 -139 -496 -89 -145 38 -238 150 -288 347 -59
231 -64 715 -10 983 25 122 80 243 140 303 111 111 319 148 505 91z m7348 0
c166 -52 267 -212 284 -449 l8 -100 -182 0 -181 0 -5 88 c-9 147 -46 197 -129
173 -35 -11 -47 -26 -70 -86 -28 -75 -27 -883 1 -980 18 -60 46 -85 95 -85 77
0 103 55 112 232 l6 117 -64 3 -64 3 0 145 0 145 243 3 242 2 0 -465 0 -465
-130 0 -130 0 0 43 c0 23 -3 52 -6 64 -6 20 -9 18 -38 -25 -38 -57 -95 -87
-191 -102 -134 -21 -263 11 -335 82 -113 113 -149 297 -150 756 0 554 70 773
283 877 118 57 268 66 401 24z m-6374 -21 c0 -23 139 -960 142 -964 2 -1 34
207 72 464 37 257 70 477 73 490 l5 22 264 0 264 0 0 -855 0 -855 -175 0 -175
0 -1 613 -1 612 -88 -565 c-48 -311 -90 -586 -94 -612 l-7 -48 -134 0 c-131 0
-135 1 -140 23 -3 12 -41 258 -85 547 -44 289 -84 548 -89 575 -5 32 -9 -168
-10 -547 l-1 -598 -175 0 -175 0 0 855 0 855 265 0 c205 0 265 -3 265 -12z
m1627 -2 c69 -18 112 -46 166 -106 83 -92 115 -188 124 -365 13 -267 -67 -449
-232 -526 -77 -36 -144 -49 -261 -49 l-94 0 0 -325 0 -325 -185 0 -185 0 0
855 0 855 308 0 c230 0 320 -4 359 -14z m763 -643 c0 -433 4 -671 11 -696 15
-56 41 -77 92 -77 52 0 84 28 98 87 5 21 9 332 9 691 l0 652 188 0 187 0 -6
-672 c-6 -733 -6 -732 -65 -851 -57 -111 -119 -164 -231 -194 -74 -20 -269
-22 -343 -4 -125 31 -208 102 -255 219 -56 140 -57 154 -62 855 l-5 647 191 0
191 0 0 -657z m1570 467 l0 -190 -140 0 -140 0 0 -665 0 -665 -185 0 -185 0 0
665 0 665 -135 0 -135 0 0 190 0 190 460 0 460 0 0 -190z m430 -665 l0 -855
-185 0 -185 0 0 855 0 855 185 0 185 0 0 -855z m580 843 c0 -7 50 -239 112
-516 l113 -503 3 515 2 516 175 0 175 0 0 -855 0 -855 -207 2 -206 3 -23 100
c-13 55 -66 282 -118 505 l-95 405 0 -507 -1 -508 -175 0 -175 0 0 855 0 855
210 0 c161 0 210 -3 210 -12z"/>
<path d="M4347 9689 c-26 -189 -65 -472 -87 -629 -22 -157 -40 -291 -40 -297
0 -10 42 -13 175 -13 96 0 175 3 175 8 0 7 -12 96 -123 896 l-53 378 -47 -343z"/>
<path d="M6150 9715 l0 -367 98 4 c103 4 137 16 184 63 63 63 95 194 85 350
-8 109 -27 178 -66 232 -43 59 -88 77 -203 81 l-98 4 0 -367z"/>
<path d="M8030 9716 l0 -366 88 0 c74 0 96 4 140 26 100 50 137 143 137 344
-1 142 -17 212 -64 276 -43 60 -88 78 -203 82 l-98 4 0 -366z"/>
<path d="M5994 6790 c-75 -23 -123 -125 -145 -310 -6 -54 -13 -323 -16 -618
-9 -883 18 -1111 138 -1172 32 -17 54 -21 92 -17 111 10 153 84 190 331 17
117 17 1325 -1 1461 -23 180 -57 272 -115 310 -30 19 -103 27 -143 15z"/>
<path d="M9880 5736 l0 -966 104 0 c158 0 208 26 246 129 43 113 52 220 57
696 6 504 -5 769 -37 904 -39 161 -80 193 -257 199 l-113 4 0 -966z"/>
<path d="M3020 3438 c-68 -35 -84 -175 -77 -663 5 -365 13 -431 57 -467 32
-26 94 -24 120 4 44 47 59 191 59 553 0 352 -15 504 -57 554 -22 27 -70 35
-102 19z"/>
<path d="M5545 3391 c-3 -2 -5 -94 -5 -203 l0 -198 61 0 c57 0 64 2 94 34 37
39 45 70 45 170 0 140 -31 187 -131 196 -33 3 -62 4 -64 1z"/>
</g>
</svg>
