<svg version="1.0" xmlns="http://www.w3.org/2000/svg" style="fill: #FDDB32;" width="1666.667" height="1666.667" viewBox="0 0 1250 1250"><path d="M0 625v625h1250V0H0zm222-385.5V295h39V184h66v304h-66V363h-39v125h-66V184h66zm259-54.7c0 .5 13.7 68.9 30.4 152L541.8 488l-35.1-.2-35.2-.3-3.2-25.5c-1.8-14-3.2-25.8-3.3-26.3 0-.4-11.4-.7-25.4-.7h-25.4l-.6 2.7c-.3 1.6-1.7 12.5-3.1 24.3s-2.8 22.5-3.1 23.7l-.4 2.3h-34.6c-32.4 0-34.5-.1-34-1.8.3-.9 7-34.8 15-75.2s21.3-108 29.7-150.3l15.1-76.7h41.4c22.8 0 41.4.4 41.4.8m177.5.2c22.4 3.2 38.8 15.4 50.1 37.2 8.2 15.9 12.3 39.7 11 64.2-2 39.4-15.2 65-40 77.1-14.3 7.1-27.6 9.5-51.3 9.5H615v115h-66V336.7c0-83.3.3-151.7.7-152 1-1.1 101.1-.8 108.8.3m188 0c24.3 3.5 42.3 18.1 52.9 42.9 10.7 25.2 11.2 70.9 1 97.9-6.5 17.4-17.7 30.3-32.7 37.7-14.7 7.2-27.1 9.4-51.9 9.5H803v115h-66V336.7c0-83.3.3-151.7.7-152 1-1.1 101.1-.8 108.8.3m144.9 51.7c6.7 28.7 12.4 51.7 12.7 51s5.9-24.3 12.5-52.5l11.8-51.2h35.8c21.2 0 35.8.4 35.8.9 0 .9-10.8 32.4-48.9 142.3L1037 368v120h-66v-59.9c0-41.2-.3-60.8-1.1-62.8-1-2.7-10.9-31.5-45.4-132.8-8.4-24.8-15.6-45.8-16-46.8-.7-1.6 1.2-1.7 35.1-1.5l35.8.3zM268.9 517c30.8 6.3 49.4 26.8 57.1 62.7 1.7 7.6 2.3 14.8 2.7 31.5l.6 21.8h-65l-.6-19.3c-.7-21.5-1.8-29.5-5-35.2-3.3-5.8-6.8-7.9-13-7.9-7 0-10.7 2.2-14 8.3-6.2 11.4-7.7 29.8-7.7 98.1 0 65.7 1.5 85.7 7.3 96.9 2.9 5.7 6.1 8 12.3 8.7 6.3.8 11.5-1.4 14.4-6 4.4-7.3 6.7-24.5 7.1-53.4l.3-16.2h65.9l-.6 23.7c-.7 31.3-2.8 43.9-10.3 61.7-4.5 10.7-10.4 19.5-17.8 26.3-7.8 7.4-16 11.7-28.3 15.1-9.2 2.5-11.1 2.6-30.8 2.6-24.2-.1-30.7-1.3-45.4-8.5-24.8-12.2-37.7-40.5-42.3-92.9-1.7-19.9-1.7-96.3 0-113.5 6.9-68.2 25.2-96.5 67.8-104.9 10.7-2.2 34-2 45.3.4m365.6 1.4c12.4 3.7 22.1 9.5 30.3 18 17.3 18 25.7 42.7 30.4 90.1 1.7 17.1 1.7 83.5 0 101-5.7 58.2-19.3 87.8-46.3 100.8-14.3 6.9-21.7 8.2-44.9 8.1-16.7 0-20.6-.4-27.5-2.2-38.2-10.4-55.1-39.6-61.5-106.2-2.9-30.8-2.2-85.8 1.6-116.5 7.1-57.7 26.8-86.2 65.4-94.6 7-1.5 11.7-1.8 26-1.5 15.4.3 18.6.7 26.5 3M422 643.5V766h82v67l-74.7-.2-74.8-.3-.3-155.8L354 521h68zm363.2-1.3c.3 112.8.4 121.7 2.1 126.5 4.3 12.7 14.7 17.6 25.7 12 5.2-2.6 8.5-7.7 10-15.6.6-3.2 1-50.6 1-124.7l.1-119.4h68l-.4 116.7c-.3 103.2-.6 117.9-2 126.3-6.4 36.2-20.8 58.5-43.5 67-12.2 4.7-18.5 5.5-41.7 5.5-19.2-.1-23.1-.3-30.6-2.2-25.5-6.5-39.2-19.9-48.3-47.3-7.9-24.1-8.5-35.6-8.6-163.3V521h67.9zm256.3-118.9c11.3 3.4 18.5 7.7 27 16.2 8.6 8.6 12.9 15.2 17.7 26.7 7.2 17.7 10.2 35.3 11.9 70.3 1.3 26.1.7 80.4-1.1 101.4-2.8 33.1-11.8 58.6-26.5 74.8-9.9 11.1-24.1 17.5-43 19.3-6 .5-32.7 1-59.2 1H920V520.9l57.8.3c51.5.3 58.3.6 63.7 2.1M216.4 876.6c13.6 3.9 22.7 14 27.1 30 .9 3.3 1.9 11.8 2.2 19.6l.6 13.8H210v-7.8c0-10.2-1.6-20.7-3.6-23.7-1.9-2.9-6.1-4-9.8-2.5-6.6 2.5-8.5 15.7-8.6 57.5 0 37.9 2 53.8 7.1 56.5 2.1 1.2 7.9 1.3 9.6.2 2.9-1.9 4.6-9 5.6-24.5l1.1-15.7h35.9l-.6 15.2c-.7 17.1-2.2 24.9-6.8 34.1-7.7 15.5-20.2 22.2-40.9 22.1-31.6-.2-44.2-14.3-48.1-53.8-1.6-16.7-.7-67.2 1.5-78.6 3.2-16.8 9.3-29.6 16.8-35.3 11.5-8.8 31.2-11.8 47.2-7.1m107.2.5c14.5 4.5 23.7 16.2 28.4 36.3 3 12.7 4 25.7 4 50.1 0 43.5-4.7 64.3-17.5 77.1-10.2 10.2-30.6 13.9-49.6 8.9-14.5-3.8-23.8-15-28.8-34.7-5.9-23.1-6.4-71.5-1-98.3 2.5-12.2 8-24.3 14-30.3 11.1-11.1 31.9-14.8 50.5-9.1m734.8 0c16.6 5.2 26.7 21.2 28.4 44.9l.8 10h-36.3l-.5-8.8c-.9-14.7-4.6-19.7-12.9-17.3-3.5 1.1-4.7 2.6-7 8.6-2.8 7.5-2.7 88.3.1 98 1.8 6 4.6 8.5 9.5 8.5 7.7 0 10.3-5.5 11.2-23.2l.6-11.7-6.4-.3-6.4-.3v-29l24.3-.3 24.2-.2v93h-26v-4.3c0-2.3-.3-5.2-.6-6.4-.6-2-.9-1.8-3.8 2.5-3.8 5.7-9.5 8.7-19.1 10.2-13.4 2.1-26.3-1.1-33.5-8.2-11.3-11.3-14.9-29.7-15-75.6 0-55.4 7-77.3 28.3-87.7 11.8-5.7 26.8-6.6 40.1-2.4M421 879.2c0 2.3 13.9 96 14.2 96.4.2.1 3.4-20.7 7.2-46.4 3.7-25.7 7-47.7 7.3-49l.5-2.2H503v171h-35l-.1-61.3-.1-61.2L459 983c-4.8 31.1-9 58.6-9.4 61.2l-.7 4.8h-13.4c-13.1 0-13.5-.1-14-2.3-.3-1.2-4.1-25.8-8.5-54.7s-8.4-54.8-8.9-57.5c-.5-3.2-.9 16.8-1 54.7l-.1 59.8h-35V878h26.5c20.5 0 26.5.3 26.5 1.2m162.7.2c6.9 1.8 11.2 4.6 16.6 10.6 8.3 9.2 11.5 18.8 12.4 36.5 1.3 26.7-6.7 44.9-23.2 52.6-7.7 3.6-14.4 4.9-26.1 4.9H554v65h-37V878h30.8c23 0 32 .4 35.9 1.4m76.3 64.3c0 43.3.4 67.1 1.1 69.6 1.5 5.6 4.1 7.7 9.2 7.7 5.2 0 8.4-2.8 9.8-8.7.5-2.1.9-33.2.9-69.1V878h37.5l-.6 67.2c-.6 73.3-.6 73.2-6.5 85.1-5.7 11.1-11.9 16.4-23.1 19.4-7.4 2-26.9 2.2-34.3.4-12.5-3.1-20.8-10.2-25.5-21.9-5.6-14-5.7-15.4-6.2-85.5l-.5-64.7H660zM817 897v19h-28v133h-37V916h-27v-38h92zm43 66.5v85.5h-37V878h37zm58-84.3c0 .7 5 23.9 11.2 51.6l11.3 50.3.3-51.5.2-51.6h35v171l-20.7-.2-20.6-.3-2.3-10c-1.3-5.5-6.6-28.2-11.8-50.5l-9.5-40.5v50.7l-.1 50.8h-35V878h21c16.1 0 21 .3 21 1.2"/><path d="M434.7 281.1c-2.6 18.9-6.5 47.2-8.7 62.9s-4 29.1-4 29.7c0 1 4.2 1.3 17.5 1.3 9.6 0 17.5-.3 17.5-.8 0-.7-1.2-9.6-12.3-89.6l-5.3-37.8zm180.3-2.6v36.7l9.8-.4c10.3-.4 13.7-1.6 18.4-6.3 6.3-6.3 9.5-19.4 8.5-35-.8-10.9-2.7-17.8-6.6-23.2-4.3-5.9-8.8-7.7-20.3-8.1l-9.8-.4zm188-.1V315h8.8c7.4 0 9.6-.4 14-2.6 10-5 13.7-14.3 13.7-34.4-.1-14.2-1.7-21.2-6.4-27.6-4.3-6-8.8-7.8-20.3-8.2l-9.8-.4zM599.4 571c-7.5 2.3-12.3 12.5-14.5 31-.6 5.4-1.3 32.3-1.6 61.8-.9 88.3 1.8 111.1 13.8 117.2 3.2 1.7 5.4 2.1 9.2 1.7 11.1-1 15.3-8.4 19-33.1 1.7-11.7 1.7-132.5-.1-146.1-2.3-18-5.7-27.2-11.5-31-3-1.9-10.3-2.7-14.3-1.5M988 676.4V773h10.4c15.8 0 20.8-2.6 24.6-12.9 4.3-11.3 5.2-22 5.7-69.6.6-50.4-.5-76.9-3.7-90.4-3.9-16.1-8-19.3-25.7-19.9l-11.3-.4zM302 906.2c-6.8 3.5-8.4 17.5-7.7 66.3.5 36.5 1.3 43.1 5.7 46.7 3.2 2.6 9.4 2.4 12-.4 4.4-4.7 5.9-19.1 5.9-55.3 0-35.2-1.5-50.4-5.7-55.4-2.2-2.7-7-3.5-10.2-1.9m252.5 4.7c-.3.2-.5 9.4-.5 20.3V951h6.1c5.7 0 6.4-.2 9.4-3.4 3.7-3.9 4.5-7 4.5-17 0-14-3.1-18.7-13.1-19.6-3.3-.3-6.2-.4-6.4-.1"/></svg>